<svg width="36" height="35" viewBox="0 0 36 35" fill="none" xmlns="http://www.w3.org/2000/svg">
<path d="M18 0.0625C8.36719 0.0625 0.5625 7.86719 0.5625 17.5C0.5625 27.1328 8.36719 34.9375 18 34.9375C27.6328 34.9375 35.4375 27.1328 35.4375 17.5C35.4375 7.86719 27.6328 0.0625 18 0.0625ZM6.75 17.5H4.5C4.5 10.1172 10.5469 4 18 4V6.25C11.7422 6.25 6.75 11.3125 6.75 17.5ZM18 24.25C14.2734 24.25 11.25 21.2266 11.25 17.5C11.25 13.7734 14.2734 10.75 18 10.75C21.7266 10.75 24.75 13.7734 24.75 17.5C24.75 21.2266 21.7266 24.25 18 24.25ZM18 15.25C16.7344 15.25 15.75 16.3047 15.75 17.5C15.75 18.7656 16.7344 19.75 18 19.75C19.1953 19.75 20.25 18.7656 20.25 17.5C20.25 16.3047 19.1953 15.25 18 15.25Z" fill="#d4af47"/>
</svg>
